<?xml version="1.0" standalone="no"?>
<!DOCTYPE svg PUBLIC "-//W3C//DTD SVG 20010904//EN"
 "http://www.w3.org/TR/2001/REC-SVG-20010904/DTD/svg10.dtd">
<svg version="1.0" xmlns="http://www.w3.org/2000/svg"
 width="902.000000pt" height="902.000000pt" viewBox="0 0 902.000000 902.000000"
 preserveAspectRatio="xMidYMid meet">
<metadata>
Created by potrace 1.11, written by Peter Selinger 2001-2013
</metadata>
<g transform="translate(0.000000,902.000000) scale(0.100000,-0.100000)"
fill="#000000" stroke="none">
<path d="M3020 6627 c0 -5 47 -77 105 -161 l104 -153 -109 -161 c-61 -88 -110
-164 -110 -169 0 -4 52 -8 116 -7 87 1 118 5 125 15 5 8 28 45 50 82 l41 68
46 -78 c25 -43 47 -80 49 -82 2 -3 191 -5 231 -2 8 1 -33 70 -93 157 -59 86
-109 163 -112 170 -2 7 35 70 84 141 48 70 96 140 105 155 l18 28 -35 1 c-45
1 -103 1 -162 0 l-48 -1 -38 -70 c-21 -39 -42 -70 -46 -70 -4 0 -25 32 -46 70
l-38 70 -61 1 c-34 0 -87 1 -119 2 -31 1 -57 -2 -57 -6z"/>
<path d="M43 6495 c0 -117 2 -135 16 -136 9 0 74 -1 146 -2 l130 -2 0 -393 0
-392 168 0 167 0 0 394 0 393 138 1 c75 0 142 1 147 1 8 1 12 201 6 264 -1 4
-208 7 -460 7 l-459 0 1 -135z"/>
<path d="M1010 6100 l0 -530 448 0 448 0 -2 133 c0 72 -2 134 -3 137 0 3 -127
5 -281 5 l-280 0 0 63 0 62 98 1 c53 0 179 0 278 0 139 -1 183 2 186 11 2 7 4
65 4 128 l-1 115 -260 2 c-143 1 -270 2 -282 3 -21 0 -23 4 -23 64 l0 63 253
1 c138 0 266 1 282 1 l31 1 -1 135 0 135 -447 0 -448 0 0 -530z"/>
<path d="M1959 6613 c-1 -23 -1 -1014 0 -1031 1 -19 540 -15 636 5 176 37 296
143 351 310 11 31 18 96 20 183 3 114 1 147 -17 210 -49 177 -151 282 -314
325 -47 12 -123 15 -367 15 -286 0 -308 -1 -309 -17z m559 -282 c97 -49 139
-148 120 -283 -9 -70 -30 -113 -71 -150 -42 -38 -84 -50 -185 -51 l-87 -2 -5
248 c-3 146 -1 252 4 257 17 17 182 3 224 -19z"/>
<path d="M5098 5395 c-2 -1 -24 -5 -50 -8 -120 -14 -266 -123 -326 -243 -87
-174 -89 -427 -4 -599 56 -113 154 -196 273 -229 71 -21 210 -24 282 -7 109
26 205 95 257 186 30 53 74 200 65 216 -3 4 -36 7 -72 6 l-66 -2 -14 -60 c-41
-179 -183 -267 -374 -232 -124 23 -230 144 -259 297 -51 268 61 508 255 546
175 34 325 -39 371 -181 9 -30 11 -30 79 -30 69 0 70 0 66 25 -19 135 -140
260 -291 300 -39 11 -184 22 -192 15z"/>
<path d="M58 5372 c-10 -2 -18 -5 -18 -6 0 -2 20 -59 44 -127 24 -68 77 -216
116 -329 39 -113 87 -250 107 -305 19 -55 46 -131 60 -170 45 -128 32 -116
124 -113 l81 3 13 35 c7 19 43 118 79 220 35 102 112 319 171 483 58 164 103
301 101 305 -4 6 -28 7 -121 3 -18 -1 -40 -59 -170 -451 -97 -292 -152 -444
-158 -435 -4 8 -71 207 -148 442 -78 235 -144 431 -148 435 -7 7 -108 15 -133
10z"/>
<path d="M1038 5372 c-28 -3 -28 -4 -28 -78 0 -52 4 -74 13 -75 13 -1 84 -1
105 0 8 1 12 23 12 75 l0 74 -37 3 c-21 2 -50 3 -65 1z"/>
<path d="M1363 5372 l-23 -3 0 -525 0 -524 65 0 65 0 0 524 0 524 -42 3 c-24
2 -53 3 -65 1z"/>
<path d="M3308 5372 l-47 -3 0 -152 c0 -84 0 -170 0 -192 -1 -39 -2 -40 -19
-19 -78 94 -255 120 -385 55 -131 -64 -188 -181 -184 -376 4 -136 26 -201 98
-279 67 -74 128 -99 239 -100 109 0 164 16 212 64 l38 38 0 -44 c0 -35 4 -44
18 -45 26 -1 86 -1 100 0 9 1 12 114 12 529 0 496 -1 528 -17 527 -10 0 -39
-1 -65 -3z m-174 -412 c81 -39 126 -121 131 -242 7 -182 -83 -300 -229 -301
-138 0 -224 97 -231 262 -7 193 85 313 235 306 27 -1 69 -12 94 -25z"/>
<path d="M8004 5372 l-42 -3 0 -157 c0 -86 -1 -172 -1 -190 l-1 -34 -45 40
c-89 78 -239 92 -358 34 -74 -37 -113 -79 -154 -169 -22 -48 -27 -76 -31 -164
-8 -198 56 -327 196 -396 110 -54 291 -33 359 41 34 37 43 31 35 -21 -4 -27
-1 -33 14 -34 23 -1 96 -1 107 0 4 1 7 238 7 529 l0 527 -22 0 c-13 0 -42 -1
-64 -3z m-174 -407 c85 -44 132 -135 135 -260 4 -177 -95 -297 -239 -289 -138
8 -219 109 -220 274 0 135 33 216 112 268 48 31 158 35 212 7z"/>
<path d="M1860 5088 c-19 -5 -40 -10 -47 -11 -6 -2 -33 -17 -61 -34 -55 -34
-102 -112 -102 -170 l0 -33 62 2 c62 3 62 3 69 36 14 71 90 111 201 106 94 -4
148 -47 148 -120 0 -57 -45 -84 -169 -99 -59 -7 -63 -8 -134 -24 -148 -34
-208 -98 -208 -223 -1 -90 31 -144 104 -182 48 -25 68 -29 139 -29 99 -1 167
20 232 69 45 34 46 34 46 12 0 -55 52 -88 129 -81 58 5 69 15 67 66 -1 39 -4
42 -31 45 -17 2 -34 8 -39 13 -5 5 -10 123 -11 266 -1 218 -4 263 -18 289 -23
44 -70 81 -120 95 -53 15 -210 19 -257 7z m266 -466 c-2 -87 -13 -114 -68
-156 -48 -36 -85 -48 -156 -47 -104 1 -158 46 -148 124 5 42 26 71 67 93 29
14 48 18 182 39 49 7 91 16 94 19 4 3 12 6 19 6 8 0 11 -22 10 -78z"/>
<path d="M3825 5093 c-182 -39 -294 -201 -282 -411 6 -111 11 -133 49 -205 65
-121 177 -178 340 -172 147 5 242 65 304 190 33 67 38 85 42 174 9 200 -67
339 -223 406 -38 16 -185 28 -230 18z m177 -129 c99 -50 148 -149 142 -288 -6
-121 -66 -215 -160 -247 -134 -47 -259 29 -299 181 -17 65 -10 170 16 230 52
121 193 179 301 124z"/>
<path d="M5969 5086 c-139 -37 -237 -154 -258 -309 -24 -173 29 -322 142 -408
63 -47 113 -62 212 -64 138 -4 236 40 308 137 47 64 68 131 72 233 9 200 -77
347 -235 404 -49 18 -186 22 -241 7z m211 -126 c108 -55 160 -225 115 -376
-63 -210 -339 -227 -428 -25 -38 87 -29 246 20 320 64 98 191 133 293 81z"/>
<path d="M6870 5090 c-42 -12 -106 -56 -133 -92 l-26 -32 1 29 c2 88 4 85 -61
85 l-60 0 0 -380 0 -380 64 0 65 0 1 238 c0 130 3 248 5 262 8 46 58 114 101
138 44 24 120 34 168 21 45 -12 84 -58 93 -109 4 -25 7 -159 7 -297 l0 -253
62 0 c62 0 63 1 64 28 1 15 1 142 1 282 1 293 -8 343 -64 397 -53 50 -93 65
-182 68 -45 2 -92 0 -106 -5z"/>
<path d="M8499 5086 c-156 -40 -263 -201 -258 -386 5 -185 73 -307 201 -366
56 -25 74 -28 163 -29 87 0 107 4 155 26 84 40 144 112 165 202 8 29 8 29 -70
29 -55 0 -55 0 -55 -16 0 -30 -41 -83 -81 -105 -32 -18 -57 -24 -109 -24 -133
0 -215 71 -235 202 -6 40 -5 41 22 42 15 0 144 1 286 1 191 -1 257 2 258 11 3
30 -3 105 -12 145 -26 116 -121 233 -212 263 -54 17 -160 19 -218 5z m184
-122 c64 -33 112 -97 119 -160 l3 -29 -210 0 c-124 0 -213 3 -217 9 -13 20 31
111 72 148 62 56 160 69 233 32z"/>
<path d="M1027 5082 c-16 -3 -17 -37 -17 -383 l0 -379 65 0 65 0 0 380 c0 297
-3 380 -12 381 -62 3 -87 4 -101 1z"/>
<path d="M127 4072 l-69 -3 6 -27 c4 -15 20 -79 36 -142 28 -106 129 -502 196
-767 l29 -113 75 0 75 0 63 233 c71 260 135 492 162 582 12 43 19 54 23 40 3
-11 51 -186 106 -390 55 -203 105 -384 111 -401 5 -17 10 -38 10 -47 0 -15 12
-17 79 -17 74 0 79 1 83 23 3 12 22 85 43 162 20 77 38 147 40 155 2 8 16 58
30 110 32 114 75 277 81 305 3 11 22 81 42 155 l38 135 -30 5 c-17 3 -49 3
-72 2 l-41 -4 -21 -81 c-11 -45 -57 -235 -102 -422 -46 -187 -86 -343 -89
-347 -4 -4 -21 50 -39 120 -18 70 -41 161 -53 202 -11 41 -33 125 -49 185 -50
191 -92 340 -95 343 -2 2 -37 5 -78 5 l-75 2 -12 -50 c-7 -27 -43 -162 -80
-300 -37 -137 -83 -307 -101 -377 -19 -71 -37 -128 -40 -128 -7 0 -7 0 -119
480 -44 190 -83 352 -88 360 -5 12 -22 14 -75 12z"/>
<path d="M1617 3781 c-168 -56 -250 -192 -244 -405 3 -89 7 -110 34 -167 69
-146 181 -211 358 -204 72 2 95 7 150 34 96 48 159 132 186 248 10 48 13 159
5 198 -30 143 -97 234 -206 283 -77 33 -203 40 -283 13z m205 -110 c46 -17
105 -79 128 -133 30 -69 32 -201 4 -269 -67 -163 -259 -205 -376 -82 -77 81
-96 261 -38 373 52 101 179 151 282 111z"/>
<path d="M2545 3791 c-59 -16 -83 -30 -125 -70 -24 -23 -44 -41 -45 -41 0 0
-1 23 0 50 l1 50 -61 0 -60 0 0 -380 0 -380 62 0 c58 0 63 2 64 23 0 12 1 125
1 250 1 222 1 230 25 278 40 79 108 119 196 113 48 -3 82 -25 104 -67 15 -28
17 -68 18 -312 l0 -280 63 -3 62 -3 0 33 c1 18 2 139 3 268 2 246 4 257 51
308 35 39 76 55 144 55 47 0 70 -5 90 -20 53 -39 56 -54 56 -361 l1 -283 64 3
65 3 -1 306 c0 298 -1 308 -23 354 -38 79 -119 116 -244 111 -74 -3 -138 -30
-187 -80 l-37 -37 -20 34 c-37 63 -175 103 -267 78z"/>
<path d="M3710 3780 c-150 -51 -243 -197 -241 -380 3 -241 125 -385 337 -395
132 -6 214 23 283 101 37 42 78 135 67 153 -3 5 -63 6 -111 2 -5 -1 -18 -20
-27 -44 -13 -30 -31 -50 -65 -72 -40 -25 -56 -29 -115 -28 -89 0 -151 31 -194
95 -27 40 -53 133 -40 145 2 2 131 4 286 5 l282 0 -5 77 c-17 264 -225 419
-457 341z m213 -122 c49 -27 93 -87 105 -143 l9 -40 -211 1 c-116 1 -214 2
-219 3 -4 0 -4 13 -1 29 36 148 189 220 317 150z"/>
<path d="M4560 3781 c-37 -13 -68 -34 -97 -65 l-43 -45 0 55 0 54 -60 0 -60 0
0 -380 0 -380 65 0 65 0 0 243 c0 197 3 252 16 290 49 145 275 181 337 54 17
-33 19 -67 20 -312 l1 -275 63 0 64 0 -2 288 c-1 314 -8 363 -60 418 -63 67
-203 92 -309 55z"/>
<path d="M717 2794 c-16 -17 -6 -44 19 -50 30 -8 47 6 42 32 -3 19 -47 32 -61
18z"/>
<path d="M1231 2776 c0 -12 1 -35 0 -53 -1 -31 -2 -31 -27 -18 -14 7 -33 12
-42 10 -9 -2 -22 -4 -29 -4 -12 -1 -62 -46 -64 -59 -7 -40 -3 -102 7 -124 27
-52 87 -73 136 -47 12 6 23 7 27 2 3 -5 17 -9 31 -8 l25 0 3 162 2 162 -35 -1
c-30 -1 -36 -5 -34 -22z m-10 -132 c18 -22 13 -96 -7 -111 -41 -30 -84 2 -84
64 0 59 56 88 91 47z"/>
<path d="M2510 2742 c0 -47 -2 -53 -15 -42 -8 7 -33 13 -56 13 -35 1 -46 -4
-70 -31 -16 -18 -29 -42 -30 -55 -2 -41 2 -72 13 -100 20 -51 102 -75 140 -40
15 13 18 14 18 1 0 -9 10 -14 30 -14 l30 0 0 163 0 163 -30 -2 c-29 -2 -30 -3
-30 -56z m-8 -106 c13 -19 9 -71 -8 -94 -30 -43 -81 -20 -88 42 -4 31 0 43 20
62 20 21 27 23 46 13 13 -7 26 -17 30 -23z"/>
<path d="M3260 2637 l0 -163 32 0 33 1 0 155 c1 98 -3 158 -10 162 -5 4 -20 8
-32 8 -23 0 -23 -1 -23 -163z"/>
<path d="M4870 2772 c0 -26 3 -29 32 -28 28 1 33 5 33 26 0 21 -5 26 -32 28
-30 3 -33 1 -33 -26z"/>
<path d="M5605 2788 c-2 -7 -3 -30 -2 -50 2 -39 -2 -42 -40 -27 -32 12 -89 -8
-108 -38 -24 -36 -28 -107 -10 -143 28 -54 87 -75 137 -49 13 7 23 8 27 1 3
-5 17 -8 31 -7 l25 2 0 159 0 159 -28 3 c-16 2 -29 -2 -32 -10z m-11 -157 c34
-66 -24 -141 -74 -96 -13 12 -20 31 -20 57 0 72 64 99 94 39z"/>
<path d="M5800 2765 c0 -31 1 -32 39 -30 22 1 44 -1 48 -4 4 -3 8 -62 8 -131
l0 -125 25 -1 c46 -1 50 10 50 140 l0 122 43 -1 c44 0 58 13 50 47 -4 14 -21
16 -134 16 l-129 -1 0 -32z"/>
<path d="M6090 2636 l0 -161 120 0 120 0 0 32 0 32 -67 0 c-109 -1 -103 -3
-103 36 l0 34 77 3 c76 3 77 3 78 31 l2 27 -79 0 -79 0 3 33 3 32 83 -1 82 0
0 32 0 32 -120 0 -120 0 0 -162z"/>
<path d="M6360 2635 l0 -162 95 2 c102 3 130 13 162 62 37 57 32 165 -10 212
-34 37 -75 49 -164 49 l-83 -1 0 -162z m188 70 c47 -55 16 -161 -48 -166 -70
-4 -67 -8 -67 94 0 50 4 95 10 98 22 15 82 -1 105 -26z"/>
<path d="M3130 2745 c0 -28 -4 -35 -20 -35 -15 0 -20 -7 -20 -25 0 -14 3 -24
8 -24 28 5 31 -4 31 -77 -1 -90 11 -107 71 -110 38 -1 40 0 40 28 0 22 -4 29
-14 25 -24 -9 -33 14 -32 78 1 56 3 60 24 59 17 -1 22 4 22 22 0 19 -5 24 -26
24 -20 0 -25 5 -24 23 4 41 0 47 -30 47 -28 0 -30 -3 -30 -35z"/>
<path d="M7759 2773 c-1 -4 0 -20 1 -35 1 -22 -3 -28 -19 -28 -16 0 -21 -6
-21 -24 0 -19 5 -24 18 -21 17 3 19 -5 19 -77 0 -92 11 -110 70 -112 35 -1 38
1 41 28 2 15 0 26 -5 23 -5 -3 -15 -2 -23 3 -20 12 -21 117 -2 133 9 7 18 10
21 7 3 -3 8 6 9 19 3 20 0 23 -17 18 -21 -5 -22 -3 -25 48 -1 15 -9 21 -33 23
-18 2 -33 0 -34 -5z"/>
<path d="M935 2713 c-11 -3 -26 -10 -34 -17 -11 -8 -15 -8 -18 2 -5 12 -31 16
-55 7 -12 -5 -13 -22 -9 -205 1 -21 6 -26 25 -25 13 0 27 3 31 6 3 4 7 40 9
81 3 85 8 98 40 98 38 0 46 -19 46 -106 l0 -82 28 1 c15 1 30 5 33 10 3 5 5
49 3 99 -2 73 -6 94 -21 108 -21 21 -50 29 -78 23z"/>
<path d="M1401 2707 c-50 -17 -75 -57 -75 -115 2 -85 53 -130 137 -119 40 5
87 42 87 68 0 15 -56 10 -70 -6 -23 -28 -90 -9 -90 26 0 11 -2 11 90 13 l75 1
-3 33 c-3 42 -17 68 -45 86 -34 21 -69 25 -106 13z m70 -58 c11 -11 19 -23 16
-25 -7 -7 -87 -8 -93 -1 -7 7 33 47 46 47 6 0 19 -9 31 -21z"/>
<path d="M1676 2705 c-15 -8 -28 -10 -31 -4 -4 5 -19 9 -35 9 l-29 0 2 -157 2
-158 30 1 c29 0 30 1 30 51 0 48 1 50 20 37 59 -41 142 7 151 88 12 99 -64
172 -140 133z m62 -63 c17 -22 15 -82 -5 -104 -36 -40 -82 -13 -85 51 -1 35 3
48 21 62 23 19 48 16 69 -9z"/>
<path d="M1911 2707 c-44 -15 -70 -51 -75 -103 -8 -80 41 -134 122 -134 30 0
48 7 71 29 17 16 31 34 31 40 0 16 -56 13 -70 -4 -23 -28 -90 -9 -90 26 0 10
5 10 90 14 81 3 79 3 74 30 -16 89 -77 129 -153 102z m79 -68 c6 -10 10 -19
10 -21 0 -3 -24 -2 -88 1 -20 1 -9 24 18 38 27 13 47 8 60 -18z"/>
<path d="M2184 2704 c-31 -17 -37 -17 -29 -4 4 6 -8 10 -29 10 l-36 0 0 -119
0 -119 33 2 32 2 1 77 c2 83 13 107 50 107 28 0 37 -24 40 -110 1 -36 2 -68 3
-71 0 -3 15 -5 31 -5 l30 0 0 96 c0 83 -3 99 -20 118 -12 12 -24 23 -28 23
-34 6 -56 4 -78 -7z"/>
<path d="M2685 2711 c-67 -20 -99 -82 -81 -157 11 -48 47 -76 105 -82 48 -4
52 -3 88 34 l38 39 -27 3 c-15 2 -38 -4 -50 -12 -40 -28 -88 -15 -88 24 0 14
12 16 80 15 79 -2 80 -1 80 23 0 76 -74 134 -145 113z m70 -68 c7 -19 5 -20
-20 -23 -61 -7 -84 9 -49 35 21 15 61 8 69 -12z"/>
<path d="M2955 2705 c-27 -10 -41 -11 -46 -4 -3 6 -17 9 -30 7 -23 -3 -23 -5
-24 -119 l-1 -115 30 0 c25 1 31 6 36 31 3 17 5 50 4 75 -2 56 10 80 41 80 33
0 44 -25 43 -101 -1 -91 -2 -88 35 -85 l32 3 -1 97 c-1 82 -4 101 -20 116 -28
27 -54 31 -99 15z"/>
<path d="M3763 2705 c-42 -18 -65 -56 -67 -109 -1 -77 43 -126 114 -126 91 0
144 74 119 164 -18 64 -100 99 -166 71z m102 -84 c12 -58 -13 -104 -54 -99
-55 6 -69 112 -18 135 30 14 65 -3 72 -36z"/>
<path d="M4064 2709 c-12 -4 -25 -12 -29 -18 -10 -17 -25 -13 -18 5 5 12 -1
15 -28 12 l-34 -3 0 -114 0 -115 28 -1 c15 -1 30 2 33 6 3 5 6 38 8 73 3 74
16 96 57 96 25 0 29 4 29 29 0 32 -15 42 -46 30z"/>
<path d="M4172 2704 c-43 -17 -66 -71 -57 -129 10 -72 75 -111 135 -82 29 15
30 15 30 -6 0 -12 -4 -28 -9 -36 -11 -17 -56 -18 -77 -1 -18 16 -62 22 -69 10
-19 -31 42 -70 109 -70 36 0 52 6 77 28 l31 28 0 109 c0 165 2 155 -32 155
-16 0 -30 -5 -30 -11 0 -8 -4 -8 -13 -1 -21 18 -61 21 -95 6z m102 -76 c21
-60 -24 -114 -70 -83 -50 33 -17 136 38 116 13 -4 27 -19 32 -33z"/>
<path d="M4433 2708 c-35 -9 -69 -50 -58 -68 9 -15 49 -8 69 13 20 20 62 23
68 5 10 -26 -5 -38 -53 -44 -65 -9 -92 -31 -92 -74 0 -57 60 -86 126 -61 14 6
28 7 32 3 3 -4 19 -7 34 -8 l28 -1 -3 100 c-2 81 -6 103 -21 118 -21 21 -85
30 -130 17z m84 -150 c-5 -29 -44 -50 -69 -37 -39 21 -9 57 49 58 18 1 22 -4
20 -21z"/>
<path d="M4735 2713 c-11 -3 -28 -12 -38 -21 -15 -14 -18 -14 -15 -2 2 10 -7
16 -29 18 l-33 3 0 -119 0 -119 25 1 c36 2 39 10 41 86 2 79 15 102 53 98 25
-3 26 -5 31 -93 l5 -90 30 0 c30 0 30 0 33 65 2 36 0 84 -3 108 -6 38 -11 46
-40 58 -19 8 -36 13 -37 13 -2 -1 -12 -4 -23 -6z"/>
<path d="M5263 2709 c-96 -27 -105 -191 -12 -229 44 -19 109 -7 136 25 13 14
23 30 23 36 0 15 -56 10 -70 -6 -16 -20 -54 -19 -75 1 -29 29 -12 39 70 39 74
0 78 1 80 22 6 76 -73 134 -152 112z m78 -70 c8 -15 6 -19 -8 -20 -10 0 -33
-1 -51 -2 -39 -2 -41 21 -3 39 28 14 48 9 62 -17z"/>
<path d="M6868 2713 c-34 -5 -76 -47 -86 -87 -31 -115 99 -205 187 -130 17 14
31 32 31 40 0 19 -47 18 -66 -1 -30 -29 -84 -13 -84 25 0 14 13 16 81 15 l81
-1 -5 39 c-9 67 -68 110 -139 100z m70 -84 c2 -13 -7 -14 -85 -10 -18 1 -5 27
20 39 24 11 60 -5 65 -29z"/>
<path d="M7305 2705 c-53 -22 -70 -51 -70 -116 0 -50 4 -62 26 -85 51 -50 160
-38 187 21 11 23 9 25 -14 25 -13 0 -36 -7 -49 -16 -30 -20 -70 -12 -85 16
-12 23 -17 22 85 24 64 1 70 3 73 23 4 31 -24 88 -51 101 -35 18 -71 21 -102
7z m80 -62 c8 -22 0 -26 -41 -25 -43 2 -46 4 -38 25 11 29 68 28 79 0z"/>
<path d="M7583 2705 c-18 -8 -33 -10 -33 -5 0 6 -13 10 -30 10 -33 0 -32 3
-32 -100 0 -142 -1 -137 32 -137 33 0 34 6 31 108 -2 53 16 79 54 79 27 0 33
-20 38 -125 2 -59 2 -60 32 -60 l30 0 -1 98 c0 83 -3 101 -20 116 -27 26 -64
32 -101 16z"/>
<path d="M86 2701 c-3 -4 10 -30 29 -57 34 -47 34 -49 16 -69 -19 -21 -61 -89
-61 -98 0 -2 14 -4 31 -3 22 1 39 11 59 36 l27 34 23 -36 c19 -29 29 -35 57
-34 18 1 33 4 33 8 0 5 -16 30 -35 57 -19 26 -35 54 -35 61 0 7 16 34 36 61
l36 49 -40 -2 c-31 -1 -43 -7 -58 -29 l-19 -28 -18 29 c-14 22 -27 30 -47 30
-16 0 -31 -4 -34 -9z"/>
<path d="M714 2593 l1 -117 30 -1 30 0 2 116 2 116 -33 1 -34 1 2 -116z"/>
<path d="M3340 2705 c0 -3 18 -55 41 -115 23 -61 39 -117 35 -125 -3 -8 -17
-15 -31 -15 -23 0 -26 -4 -23 -27 3 -24 8 -28 37 -29 21 -1 41 6 56 20 20 19
115 253 115 285 0 8 -11 11 -31 9 -30 -3 -33 -7 -52 -70 -11 -38 -23 -68 -27
-68 -3 0 -16 32 -29 70 -22 69 -23 70 -57 70 -19 0 -34 -2 -34 -5z"/>
<path d="M4869 2705 c0 -3 0 -34 0 -70 0 -173 -2 -162 29 -160 15 1 30 3 33 3
4 2 5 194 0 225 -1 8 -61 10 -62 2z"/>
<path d="M4970 2680 c0 -26 2 -26 50 -22 55 4 58 1 33 -26 -89 -94 -99 -108
-93 -132 5 -25 6 -25 108 -25 l102 -1 0 27 c0 26 -2 26 -55 24 -31 -1 -57 1
-59 4 -2 3 22 34 54 69 35 37 57 69 55 80 -2 9 -4 20 -4 25 -1 4 -44 7 -96 6
l-95 -3 0 -26z"/>
<path d="M7010 2698 c0 -15 68 -209 76 -217 9 -9 64 -10 69 0 3 4 23 58 44
119 l39 111 -36 -3 c-36 -3 -37 -4 -56 -70 -10 -38 -22 -68 -25 -68 -3 0 -15
30 -26 68 -19 63 -22 67 -53 70 -21 2 -32 -1 -32 -10z"/>
<path d="M408 2662 c-22 -3 -28 -9 -28 -28 l0 -24 115 0 115 0 0 25 c0 14 -6
25 -12 26 -50 3 -168 3 -190 1z"/>
<path d="M380 2545 c0 -14 3 -25 8 -26 13 -1 176 -1 200 0 17 1 22 7 22 26 l0
25 -115 0 -115 0 0 -25z"/>
</g>
</svg>
